<?xml version="1.0" standalone="no"?>
<!DOCTYPE svg PUBLIC "-//W3C//DTD SVG 20010904//EN"
 "http://www.w3.org/TR/2001/REC-SVG-20010904/DTD/svg10.dtd">
<svg version="1.0" xmlns="http://www.w3.org/2000/svg"
 width="626.000000pt" height="626.000000pt" viewBox="0 0 626.000000 626.000000"
 preserveAspectRatio="xMidYMid meet">
<metadata>
Created by potrace 1.11, written by Peter Selinger 2001-2013
</metadata>
<g transform="translate(0.000000,626.000000) scale(0.100000,-0.100000)"
fill="#000000" stroke="none">
<path d="M2910 6240 c-11 -11 -20 -33 -20 -48 0 -51 24 -61 209 -87 94 -14
206 -33 249 -44 42 -10 95 -22 116 -26 62 -11 371 -110 481 -155 101 -41 417
-195 467 -227 15 -10 64 -40 110 -68 46 -27 113 -72 150 -100 37 -27 84 -61
104 -75 58 -41 253 -207 338 -289 89 -86 294 -314 344 -381 18 -25 59 -79 90
-121 81 -109 176 -261 257 -414 126 -238 225 -489 301 -765 24 -90 40 -119 70
-126 31 -8 77 23 82 54 4 29 -75 294 -143 477 -97 261 -282 608 -440 828 -620
861 -1497 1403 -2526 1561 -199 31 -213 32 -239 6z"/>
<path d="M3035 5355 c-27 -26 -31 -46 -15 -74 12 -24 44 -36 165 -61 293 -62
622 -197 883 -363 189 -120 331 -235 497 -401 310 -310 524 -661 674 -1106 30
-88 41 -107 64 -118 41 -20 81 2 85 46 10 108 -188 561 -356 815 -433 653
-1059 1085 -1830 1261 -137 32 -137 32 -167 1z"/>
<path d="M3056 4368 c-39 -56 -9 -88 124 -134 115 -39 236 -95 347 -161 271
-159 533 -436 676 -713 45 -86 68 -110 108 -110 30 0 59 31 59 64 0 11 -23 62
-51 115 -232 435 -633 775 -1098 932 -104 36 -144 37 -165 7z"/>
<path d="M2451 4185 c-75 -14 -195 -68 -240 -109 -38 -34 -388 -405 -630 -666
-74 -80 -164 -176 -201 -215 -120 -127 -243 -258 -370 -395 -69 -74 -161 -173
-205 -219 -44 -47 -111 -119 -150 -161 -38 -41 -106 -113 -150 -160 -369 -390
-405 -432 -445 -515 -46 -97 -63 -178 -57 -271 10 -145 73 -271 193 -383 38
-36 101 -94 139 -131 39 -36 104 -97 145 -135 41 -38 116 -107 165 -154 215
-203 257 -242 369 -346 65 -60 139 -130 164 -153 126 -118 249 -168 407 -166
81 1 112 6 165 26 141 55 154 66 610 559 63 68 155 167 204 219 141 149 231
245 367 390 114 123 410 440 724 775 296 317 338 363 375 418 61 91 83 157 88
273 5 111 -9 176 -55 269 -45 88 -40 83 -478 494 -38 37 -104 97 -145 136
-125 115 -350 325 -440 410 -105 99 -151 135 -215 168 -90 45 -226 62 -334 42z
m190 -225 c53 -15 105 -53 231 -170 62 -58 139 -130 172 -160 33 -30 69 -64
80 -75 12 -12 55 -52 96 -90 68 -62 211 -196 465 -435 192 -180 210 -209 210
-340 -1 -97 -21 -152 -82 -217 -19 -21 -54 -58 -77 -83 -23 -25 -73 -79 -111
-120 -38 -41 -134 -145 -214 -230 -148 -156 -265 -281 -311 -331 -14 -15 -50
-53 -80 -86 -30 -32 -109 -117 -175 -188 -66 -71 -156 -168 -201 -215 -44 -47
-154 -164 -244 -260 -90 -96 -191 -204 -224 -240 -34 -36 -123 -132 -199 -215
-77 -82 -158 -168 -180 -189 -97 -91 -235 -116 -347 -65 -52 24 -181 137 -455
398 -44 42 -143 135 -220 206 -266 249 -318 297 -411 387 -106 102 -137 163
-137 262 0 121 25 162 252 401 105 112 323 345 406 435 38 41 72 77 75 80 3 3
68 73 145 155 76 83 171 183 209 224 39 41 80 84 91 96 33 36 144 155 224 240
42 44 130 139 196 210 511 551 537 577 609 604 56 22 150 27 207 11z"/>
<path d="M3223 3362 c-6 -4 -82 -84 -167 -177 -96 -105 -156 -178 -156 -191 0
-25 29 -54 55 -54 17 0 61 42 165 156 168 183 180 199 180 226 0 37 -44 61
-77 40z"/>
<path d="M2158 3349 c-10 -6 -18 -22 -18 -37 0 -21 22 -47 103 -121 56 -52
135 -125 174 -163 77 -72 106 -83 136 -50 36 40 35 41 -157 217 -61 55 -125
115 -143 133 -34 33 -64 39 -95 21z"/>
<path d="M2644 2921 c-58 -26 -87 -72 -92 -143 -5 -70 9 -108 54 -148 106 -93
267 -32 290 109 12 74 -30 150 -100 182 -52 24 -100 24 -152 0z m126 -76 c38
-20 57 -74 40 -116 -17 -40 -47 -59 -91 -59 -84 0 -121 99 -60 161 33 33 67
37 111 14z"/>
<path d="M2940 2580 c-11 -11 -20 -25 -20 -32 0 -13 109 -121 265 -265 63 -58
98 -83 116 -83 32 0 49 17 49 51 0 24 -61 88 -214 224 -7 6 -39 36 -73 68 -66
61 -91 69 -123 37z"/>
<path d="M2304 2410 c-99 -107 -160 -181 -162 -197 -5 -32 14 -53 48 -53 24 0
55 28 184 168 86 92 159 178 163 191 8 33 -8 55 -44 59 -28 3 -44 -12 -189
-168z"/>
<path d="M1384 2377 c-54 -54 -64 -90 -38 -133 26 -44 148 -152 181 -160 55
-14 143 65 143 128 0 40 -13 61 -67 111 -26 23 -53 49 -62 58 -52 53 -101 52
-157 -4z m157 -84 c38 -36 69 -70 69 -75 0 -20 -45 -68 -64 -68 -24 0 -146
117 -146 140 0 18 46 70 61 70 6 0 42 -30 80 -67z"/>
<path d="M1120 2083 c-23 -8 -70 -55 -86 -85 -28 -53 -19 -76 59 -153 81 -81
103 -95 145 -95 31 0 89 46 111 87 26 51 15 79 -61 154 -85 83 -128 107 -168
92z m113 -129 c37 -37 67 -70 67 -74 0 -13 -57 -70 -70 -70 -13 0 -127 107
-141 132 -11 20 33 78 59 78 10 0 47 -30 85 -66z"/>
<path d="M1804 2031 c-46 -28 -74 -73 -74 -117 0 -35 7 -45 73 -107 86 -82
118 -101 157 -92 34 7 97 73 106 110 10 41 -14 82 -92 151 -83 75 -120 87
-170 55z m134 -109 c38 -34 62 -62 62 -75 0 -26 -38 -67 -61 -67 -21 0 -149
119 -149 138 0 22 58 74 72 66 7 -4 41 -32 76 -62z"/>
<path d="M754 1706 c-39 -38 -44 -49 -44 -87 0 -42 4 -48 73 -113 85 -81 123
-101 164 -85 62 23 109 91 99 143 -6 31 -63 94 -144 159 -52 42 -94 37 -148
-17z m165 -86 c48 -45 70 -74 65 -82 -15 -27 -48 -58 -62 -58 -21 0 -152 119
-152 138 0 18 48 72 65 72 6 0 44 -31 84 -70z"/>
<path d="M1505 1706 c-58 -26 -96 -88 -87 -143 2 -12 41 -58 87 -102 73 -70
89 -81 119 -81 64 0 144 91 131 149 -5 24 -70 95 -145 157 -34 29 -69 35 -105
20z m120 -118 c36 -34 65 -69 65 -78 0 -19 -54 -74 -68 -69 -24 10 -142 128
-142 143 0 21 44 66 65 66 8 0 45 -28 80 -62z"/>
<path d="M2195 1660 c-44 -27 -78 -92 -70 -130 7 -33 116 -145 169 -173 45
-24 78 -14 126 35 40 42 53 79 40 112 -9 24 -113 128 -156 157 -37 24 -71 24
-109 -1z m132 -101 c34 -30 65 -62 68 -72 8 -22 -39 -77 -64 -77 -21 0 -141
120 -141 142 0 20 50 70 65 65 5 -2 38 -28 72 -58z"/>
<path d="M1183 1367 c-37 -21 -83 -87 -83 -120 0 -24 15 -46 78 -109 105 -107
140 -116 209 -57 38 32 53 60 53 96 -1 40 -16 61 -98 136 -78 71 -110 82 -159
54z m121 -104 c35 -32 67 -66 71 -76 8 -22 -39 -77 -65 -77 -8 0 -46 31 -84
69 l-68 69 17 26 c17 26 42 45 58 46 4 0 36 -26 71 -57z"/>
<path d="M1905 1340 c-11 -4 -37 -26 -58 -49 -58 -64 -53 -97 26 -178 70 -72
114 -103 146 -103 59 0 131 77 131 140 0 30 -10 44 -67 99 -102 96 -131 111
-178 91z m118 -123 c37 -35 67 -69 67 -76 0 -7 -14 -25 -32 -41 -26 -24 -35
-27 -52 -18 -29 16 -136 119 -136 131 0 17 52 67 69 67 9 0 46 -29 84 -63z"/>
<path d="M1543 965 c-35 -37 -43 -52 -43 -83 0 -43 20 -69 113 -151 46 -41 64
-51 93 -51 43 0 85 28 114 76 34 54 22 88 -58 166 -77 75 -98 88 -143 88 -25
0 -42 -10 -76 -45z m160 -76 c41 -38 67 -70 67 -82 0 -24 -37 -67 -57 -67 -20
0 -153 121 -153 139 0 18 49 71 65 71 6 0 41 -28 78 -61z"/>
</g>
</svg>
